{
	"asset":{
		"generator":"Khronos glTF Blender I/O v4.4.55",
		"version":"2.0"
	},
	"scene":0,
	"scenes":[
		{
			"name":"Scene",
			"nodes":[
				0,
				1,
				2,
				3,
				4,
				5,
				6,
				7,
				8,
				9,
				10,
				11,
				12
			]
		}
	],
	"nodes":[
		{
			"mesh":0,
			"name":"Cube",
			"rotation":[
				0.044366877526044846,
				0,
				0,
				0.9990153312683105
			],
			"scale":[
				0.10000002384185791,
				0.10000002384185791,
				0.10000000894069672
			],
			"translation":[
				33.24894714355469,
				12.230199813842773,
				-18.97044563293457
			]
		},
		{
			"mesh":1,
			"name":"Cube.001",
			"rotation":[
				0.044366877526044846,
				0,
				0,
				0.9990153312683105
			],
			"scale":[
				0.050000011920928955,
				0.015000004321336746,
				0.07500002533197403
			],
			"translation":[
				35.736881256103516,
				13.227317810058594,
				-20.628459930419922
			]
		},
		{
			"mesh":2,
			"name":"Cube.002",
			"rotation":[
				0.044366877526044846,
				0,
				0,
				0.9990153312683105
			],
			"scale":[
				0.10000002384185791,
				0.015000004321336746,
				0.050000011920928955
			],
			"translation":[
				35.23772048950195,
				13.029022216796875,
				-18.400331497192383
			]
		},
		{
			"mesh":3,
			"name":"Cube.003",
			"rotation":[
				0.044366877526044846,
				0,
				0,
				0.9990153312683105
			],
			"scale":[
				0.050000011920928955,
				0.10000002384185791,
				0.050000011920928955
			],
			"translation":[
				35.73139190673828,
				12.490550994873047,
				-21.937700271606445
			]
		},
		{
			"mesh":4,
			"name":"Cylinder",
			"rotation":[
				-0.14706934988498688,
				0,
				0,
				0.9891262054443359
			],
			"scale":[
				0.0590364933013916,
				0.8999999761581421,
				0.0590364970266819
			],
			"translation":[
				35.96521759033203,
				12.165051460266113,
				-19.659025192260742
			]
		},
		{
			"mesh":5,
			"name":"Cylinder.001",
			"rotation":[
				0.044366877526044846,
				0,
				0,
				0.9990153312683105
			],
			"scale":[
				0.05999999865889549,
				0.8500000238418579,
				0.05999999865889549
			],
			"translation":[
				35.27064514160156,
				12.166511535644531,
				-19.90355110168457
			]
		},
		{
			"mesh":6,
			"name":"Cylinder.002",
			"rotation":[
				0.044366877526044846,
				0,
				0,
				0.9990153312683105
			],
			"scale":[
				0.05999999865889549,
				0.8500000238418579,
				0.05999999865889549
			],
			"translation":[
				35.711585998535156,
				12.272796630859375,
				-21.09780502319336
			]
		},
		{
			"mesh":7,
			"name":"Cube.004",
			"rotation":[
				0.044366877526044846,
				0,
				0,
				0.9990153312683105
			],
			"scale":[
				0.10000002384185791,
				0.015000004321336746,
				0.050000011920928955
			],
			"translation":[
				35.23772048950195,
				13.116899490356445,
				-19.387754440307617
			]
		},
		{
			"mesh":8,
			"name":"Cylinder.003",
			"rotation":[
				0.1052725538611412,
				0,
				0,
				0.994443416595459
			],
			"scale":[
				0.05999999865889549,
				0.8500000238418579,
				0.05999999865889549
			],
			"translation":[
				35.13331985473633,
				12.034916877746582,
				-18.256385803222656
			]
		},
		{
			"mesh":9,
			"name":"Cylinder.004",
			"rotation":[
				0.1052725538611412,
				0,
				0,
				0.994443416595459
			],
			"scale":[
				0.05999999865889549,
				0.8500000238418579,
				0.05999999865889549
			],
			"translation":[
				35.75252151489258,
				12.071025848388672,
				-18.66212272644043
			]
		},
		{
			"mesh":10,
			"name":"Cylinder.005",
			"rotation":[
				-0.14706934988498688,
				0,
				0,
				0.9891262054443359
			],
			"scale":[
				0.0590364933013916,
				0.8999999761581421,
				0.0590364970266819
			],
			"translation":[
				35.7119140625,
				12.227884292602539,
				-20.365036010742188
			]
		},
		{
			"mesh":11,
			"name":"Cylinder.006",
			"rotation":[
				-0.14706934988498688,
				0,
				0,
				0.9891262054443359
			],
			"scale":[
				0.0590364933013916,
				0.8999999761581421,
				0.0590364970266819
			],
			"translation":[
				34.951568603515625,
				12.15657901763916,
				-19.563823699951172
			]
		},
		{
			"mesh":12,
			"name":"Cylinder.007",
			"rotation":[
				0.23417280614376068,
				0,
				0,
				0.972195029258728
			],
			"scale":[
				0.0590364933013916,
				0.8999999761581421,
				0.0590364970266819
			],
			"translation":[
				34.527870178222656,
				12.113347053527832,
				-19.078060150146484
			]
		}
	],
	"materials":[
		{
			"doubleSided":true,
			"name":"Material.004",
			"pbrMetallicRoughness":{
				"baseColorTexture":{
					"index":0
				},
				"metallicFactor":0,
				"roughnessFactor":0.5
			}
		},
		{
			"doubleSided":true,
			"name":"Material.001",
			"pbrMetallicRoughness":{
				"baseColorTexture":{
					"index":1
				},
				"metallicFactor":0,
				"roughnessFactor":0.5
			}
		},
		{
			"doubleSided":true,
			"name":"Material.003",
			"pbrMetallicRoughness":{
				"baseColorTexture":{
					"index":2
				},
				"metallicFactor":0,
				"roughnessFactor":0.5
			}
		},
		{
			"doubleSided":true,
			"name":"Material",
			"pbrMetallicRoughness":{
				"baseColorTexture":{
					"index":3
				},
				"metallicFactor":0,
				"roughnessFactor":0.5
			}
		},
		{
			"doubleSided":true,
			"name":"Material.007",
			"pbrMetallicRoughness":{
				"metallicFactor":0,
				"roughnessFactor":0.5
			}
		},
		{
			"doubleSided":true,
			"name":"Material.008",
			"pbrMetallicRoughness":{
				"metallicFactor":0,
				"roughnessFactor":0.5
			}
		},
		{
			"doubleSided":true,
			"name":"Material.005",
			"pbrMetallicRoughness":{
				"metallicFactor":0,
				"roughnessFactor":0.8406593799591064
			}
		},
		{
			"doubleSided":true,
			"name":"Material.002",
			"pbrMetallicRoughness":{
				"baseColorTexture":{
					"index":4
				},
				"metallicFactor":0,
				"roughnessFactor":0.5
			}
		},
		{
			"doubleSided":true,
			"name":"Material.012",
			"pbrMetallicRoughness":{
				"metallicFactor":0,
				"roughnessFactor":0.5
			}
		},
		{
			"doubleSided":true,
			"name":"Material.011",
			"pbrMetallicRoughness":{
				"metallicFactor":0,
				"roughnessFactor":0.5
			}
		},
		{
			"doubleSided":true,
			"name":"Material.006",
			"pbrMetallicRoughness":{
				"metallicFactor":0,
				"roughnessFactor":0.5
			}
		},
		{
			"doubleSided":true,
			"name":"Material.009",
			"pbrMetallicRoughness":{
				"metallicFactor":0,
				"roughnessFactor":0.5
			}
		},
		{
			"doubleSided":true,
			"name":"Material.010",
			"pbrMetallicRoughness":{
				"metallicFactor":0,
				"roughnessFactor":0.5
			}
		}
	],
	"meshes":[
		{
			"name":"Cube.001",
			"primitives":[
				{
					"attributes":{
						"POSITION":0,
						"NORMAL":1,
						"TEXCOORD_0":2
					},
					"indices":3,
					"material":0
				}
			]
		},
		{
			"name":"Cube.002",
			"primitives":[
				{
					"attributes":{
						"POSITION":4,
						"NORMAL":5,
						"TEXCOORD_0":6
					},
					"indices":3,
					"material":1
				}
			]
		},
		{
			"name":"Cube.003",
			"primitives":[
				{
					"attributes":{
						"POSITION":7,
						"NORMAL":8,
						"TEXCOORD_0":9
					},
					"indices":3,
					"material":2
				}
			]
		},
		{
			"name":"Cube.004",
			"primitives":[
				{
					"attributes":{
						"POSITION":10,
						"NORMAL":11,
						"TEXCOORD_0":12
					},
					"indices":3,
					"material":3
				}
			]
		},
		{
			"name":"Cylinder",
			"primitives":[
				{
					"attributes":{
						"POSITION":13,
						"NORMAL":14,
						"TEXCOORD_0":15
					},
					"indices":16,
					"material":4
				}
			]
		},
		{
			"name":"Cylinder.001",
			"primitives":[
				{
					"attributes":{
						"POSITION":17,
						"NORMAL":18,
						"TEXCOORD_0":19
					},
					"indices":16,
					"material":5
				}
			]
		},
		{
			"name":"Cylinder.002",
			"primitives":[
				{
					"attributes":{
						"POSITION":20,
						"NORMAL":21,
						"TEXCOORD_0":22
					},
					"indices":16,
					"material":6
				}
			]
		},
		{
			"name":"Cube.005",
			"primitives":[
				{
					"attributes":{
						"POSITION":23,
						"NORMAL":24,
						"TEXCOORD_0":25
					},
					"indices":3,
					"material":7
				}
			]
		},
		{
			"name":"Cylinder.003",
			"primitives":[
				{
					"attributes":{
						"POSITION":26,
						"NORMAL":27,
						"TEXCOORD_0":28
					},
					"indices":16,
					"material":8
				}
			]
		},
		{
			"name":"Cylinder.004",
			"primitives":[
				{
					"attributes":{
						"POSITION":29,
						"NORMAL":30,
						"TEXCOORD_0":31
					},
					"indices":16,
					"material":9
				}
			]
		},
		{
			"name":"Cylinder.005",
			"primitives":[
				{
					"attributes":{
						"POSITION":32,
						"NORMAL":33,
						"TEXCOORD_0":34
					},
					"indices":16,
					"material":10
				}
			]
		},
		{
			"name":"Cylinder.006",
			"primitives":[
				{
					"attributes":{
						"POSITION":35,
						"NORMAL":36,
						"TEXCOORD_0":37
					},
					"indices":16,
					"material":11
				}
			]
		},
		{
			"name":"Cylinder.007",
			"primitives":[
				{
					"attributes":{
						"POSITION":38,
						"NORMAL":39,
						"TEXCOORD_0":40
					},
					"indices":16,
					"material":12
				}
			]
		}
	],
	"textures":[
		{
			"sampler":0,
			"source":0
		},
		{
			"sampler":0,
			"source":1
		},
		{
			"sampler":0,
			"source":2
		},
		{
			"sampler":0,
			"source":3
		},
		{
			"sampler":0,
			"source":4
		}
	],
	"images":[
		{
			"mimeType":"image/png",
			"name":"Screenshot 2025-04-08 004707",
			"uri":"Screenshot%202025-04-08%20004707.png"
		},
		{
			"mimeType":"image/png",
			"name":"Screenshot 2025-04-08 004002",
			"uri":"Screenshot%202025-04-08%20004002.png"
		},
		{
			"mimeType":"image/png",
			"name":"Screenshot 2025-04-08 003941",
			"uri":"Screenshot%202025-04-08%20003941.png"
		},
		{
			"mimeType":"image/png",
			"name":"business_texture",
			"uri":"business_texture.png"
		},
		{
			"mimeType":"image/png",
			"name":"Screenshot 2025-04-08 003955",
			"uri":"Screenshot%202025-04-08%20003955.png"
		}
	],
	"accessors":[
		{
			"bufferView":0,
			"componentType":5126,
			"count":24,
			"max":[
				10,
				10,
				10
			],
			"min":[
				-10,
				-10,
				-10
			],
			"type":"VEC3"
		},
		{
			"bufferView":1,
			"componentType":5126,
			"count":24,
			"type":"VEC3"
		},
		{
			"bufferView":2,
			"componentType":5126,
			"count":24,
			"type":"VEC2"
		},
		{
			"bufferView":3,
			"componentType":5123,
			"count":36,
			"type":"SCALAR"
		},
		{
			"bufferView":4,
			"componentType":5126,
			"count":24,
			"max":[
				10,
				10,
				10
			],
			"min":[
				-10,
				-10,
				-10
			],
			"type":"VEC3"
		},
		{
			"bufferView":5,
			"componentType":5126,
			"count":24,
			"type":"VEC3"
		},
		{
			"bufferView":6,
			"componentType":5126,
			"count":24,
			"type":"VEC2"
		},
		{
			"bufferView":7,
			"componentType":5126,
			"count":24,
			"max":[
				10,
				10,
				10
			],
			"min":[
				-10,
				-10,
				-10
			],
			"type":"VEC3"
		},
		{
			"bufferView":8,
			"componentType":5126,
			"count":24,
			"type":"VEC3"
		},
		{
			"bufferView":9,
			"componentType":5126,
			"count":24,
			"type":"VEC2"
		},
		{
			"bufferView":10,
			"componentType":5126,
			"count":24,
			"max":[
				10,
				10,
				10
			],
			"min":[
				-10,
				-10,
				-10
			],
			"type":"VEC3"
		},
		{
			"bufferView":11,
			"componentType":5126,
			"count":24,
			"type":"VEC3"
		},
		{
			"bufferView":12,
			"componentType":5126,
			"count":24,
			"type":"VEC2"
		},
		{
			"bufferView":13,
			"componentType":5126,
			"count":192,
			"max":[
				1,
				1,
				1
			],
			"min":[
				-1,
				-1,
				-1
			],
			"type":"VEC3"
		},
		{
			"bufferView":14,
			"componentType":5126,
			"count":192,
			"type":"VEC3"
		},
		{
			"bufferView":15,
			"componentType":5126,
			"count":192,
			"type":"VEC2"
		},
		{
			"bufferView":16,
			"componentType":5123,
			"count":372,
			"type":"SCALAR"
		},
		{
			"bufferView":17,
			"componentType":5126,
			"count":192,
			"max":[
				1,
				1,
				1
			],
			"min":[
				-1,
				-1,
				-1
			],
			"type":"VEC3"
		},
		{
			"bufferView":18,
			"componentType":5126,
			"count":192,
			"type":"VEC3"
		},
		{
			"bufferView":19,
			"componentType":5126,
			"count":192,
			"type":"VEC2"
		},
		{
			"bufferView":20,
			"componentType":5126,
			"count":192,
			"max":[
				1,
				1,
				1
			],
			"min":[
				-1,
				-1,
				-1
			],
			"type":"VEC3"
		},
		{
			"bufferView":21,
			"componentType":5126,
			"count":192,
			"type":"VEC3"
		},
		{
			"bufferView":22,
			"componentType":5126,
			"count":192,
			"type":"VEC2"
		},
		{
			"bufferView":23,
			"componentType":5126,
			"count":24,
			"max":[
				10,
				10,
				10
			],
			"min":[
				-10,
				-10,
				-10
			],
			"type":"VEC3"
		},
		{
			"bufferView":24,
			"componentType":5126,
			"count":24,
			"type":"VEC3"
		},
		{
			"bufferView":25,
			"componentType":5126,
			"count":24,
			"type":"VEC2"
		},
		{
			"bufferView":26,
			"componentType":5126,
			"count":192,
			"max":[
				1,
				1,
				1
			],
			"min":[
				-1,
				-1,
				-1
			],
			"type":"VEC3"
		},
		{
			"bufferView":27,
			"componentType":5126,
			"count":192,
			"type":"VEC3"
		},
		{
			"bufferView":28,
			"componentType":5126,
			"count":192,
			"type":"VEC2"
		},
		{
			"bufferView":29,
			"componentType":5126,
			"count":192,
			"max":[
				1,
				1,
				1
			],
			"min":[
				-1,
				-1,
				-1
			],
			"type":"VEC3"
		},
		{
			"bufferView":30,
			"componentType":5126,
			"count":192,
			"type":"VEC3"
		},
		{
			"bufferView":31,
			"componentType":5126,
			"count":192,
			"type":"VEC2"
		},
		{
			"bufferView":32,
			"componentType":5126,
			"count":192,
			"max":[
				1,
				1,
				1
			],
			"min":[
				-1,
				-1,
				-1
			],
			"type":"VEC3"
		},
		{
			"bufferView":33,
			"componentType":5126,
			"count":192,
			"type":"VEC3"
		},
		{
			"bufferView":34,
			"componentType":5126,
			"count":192,
			"type":"VEC2"
		},
		{
			"bufferView":35,
			"componentType":5126,
			"count":192,
			"max":[
				1,
				1,
				1
			],
			"min":[
				-1,
				-1,
				-1
			],
			"type":"VEC3"
		},
		{
			"bufferView":36,
			"componentType":5126,
			"count":192,
			"type":"VEC3"
		},
		{
			"bufferView":37,
			"componentType":5126,
			"count":192,
			"type":"VEC2"
		},
		{
			"bufferView":38,
			"componentType":5126,
			"count":192,
			"max":[
				1,
				1,
				1
			],
			"min":[
				-1,
				-1,
				-1
			],
			"type":"VEC3"
		},
		{
			"bufferView":39,
			"componentType":5126,
			"count":192,
			"type":"VEC3"
		},
		{
			"bufferView":40,
			"componentType":5126,
			"count":192,
			"type":"VEC2"
		}
	],
	"bufferViews":[
		{
			"buffer":0,
			"byteLength":288,
			"byteOffset":0,
			"target":34962
		},
		{
			"buffer":0,
			"byteLength":288,
			"byteOffset":288,
			"target":34962
		},
		{
			"buffer":0,
			"byteLength":192,
			"byteOffset":576,
			"target":34962
		},
		{
			"buffer":0,
			"byteLength":72,
			"byteOffset":768,
			"target":34963
		},
		{
			"buffer":0,
			"byteLength":288,
			"byteOffset":840,
			"target":34962
		},
		{
			"buffer":0,
			"byteLength":288,
			"byteOffset":1128,
			"target":34962
		},
		{
			"buffer":0,
			"byteLength":192,
			"byteOffset":1416,
			"target":34962
		},
		{
			"buffer":0,
			"byteLength":288,
			"byteOffset":1608,
			"target":34962
		},
		{
			"buffer":0,
			"byteLength":288,
			"byteOffset":1896,
			"target":34962
		},
		{
			"buffer":0,
			"byteLength":192,
			"byteOffset":2184,
			"target":34962
		},
		{
			"buffer":0,
			"byteLength":288,
			"byteOffset":2376,
			"target":34962
		},
		{
			"buffer":0,
			"byteLength":288,
			"byteOffset":2664,
			"target":34962
		},
		{
			"buffer":0,
			"byteLength":192,
			"byteOffset":2952,
			"target":34962
		},
		{
			"buffer":0,
			"byteLength":2304,
			"byteOffset":3144,
			"target":34962
		},
		{
			"buffer":0,
			"byteLength":2304,
			"byteOffset":5448,
			"target":34962
		},
		{
			"buffer":0,
			"byteLength":1536,
			"byteOffset":7752,
			"target":34962
		},
		{
			"buffer":0,
			"byteLength":744,
			"byteOffset":9288,
			"target":34963
		},
		{
			"buffer":0,
			"byteLength":2304,
			"byteOffset":10032,
			"target":34962
		},
		{
			"buffer":0,
			"byteLength":2304,
			"byteOffset":12336,
			"target":34962
		},
		{
			"buffer":0,
			"byteLength":1536,
			"byteOffset":14640,
			"target":34962
		},
		{
			"buffer":0,
			"byteLength":2304,
			"byteOffset":16176,
			"target":34962
		},
		{
			"buffer":0,
			"byteLength":2304,
			"byteOffset":18480,
			"target":34962
		},
		{
			"buffer":0,
			"byteLength":1536,
			"byteOffset":20784,
			"target":34962
		},
		{
			"buffer":0,
			"byteLength":288,
			"byteOffset":22320,
			"target":34962
		},
		{
			"buffer":0,
			"byteLength":288,
			"byteOffset":22608,
			"target":34962
		},
		{
			"buffer":0,
			"byteLength":192,
			"byteOffset":22896,
			"target":34962
		},
		{
			"buffer":0,
			"byteLength":2304,
			"byteOffset":23088,
			"target":34962
		},
		{
			"buffer":0,
			"byteLength":2304,
			"byteOffset":25392,
			"target":34962
		},
		{
			"buffer":0,
			"byteLength":1536,
			"byteOffset":27696,
			"target":34962
		},
		{
			"buffer":0,
			"byteLength":2304,
			"byteOffset":29232,
			"target":34962
		},
		{
			"buffer":0,
			"byteLength":2304,
			"byteOffset":31536,
			"target":34962
		},
		{
			"buffer":0,
			"byteLength":1536,
			"byteOffset":33840,
			"target":34962
		},
		{
			"buffer":0,
			"byteLength":2304,
			"byteOffset":35376,
			"target":34962
		},
		{
			"buffer":0,
			"byteLength":2304,
			"byteOffset":37680,
			"target":34962
		},
		{
			"buffer":0,
			"byteLength":1536,
			"byteOffset":39984,
			"target":34962
		},
		{
			"buffer":0,
			"byteLength":2304,
			"byteOffset":41520,
			"target":34962
		},
		{
			"buffer":0,
			"byteLength":2304,
			"byteOffset":43824,
			"target":34962
		},
		{
			"buffer":0,
			"byteLength":1536,
			"byteOffset":46128,
			"target":34962
		},
		{
			"buffer":0,
			"byteLength":2304,
			"byteOffset":47664,
			"target":34962
		},
		{
			"buffer":0,
			"byteLength":2304,
			"byteOffset":49968,
			"target":34962
		},
		{
			"buffer":0,
			"byteLength":1536,
			"byteOffset":52272,
			"target":34962
		}
	],
	"samplers":[
		{
			"magFilter":9729,
			"minFilter":9987
		}
	],
	"buffers":[
		{
			"byteLength":53808,
			"uri":"livi_business.bin"
		}
	]
}
